<?xml version="1.0" encoding="utf-8"?>
<!-- Generator: Adobe Illustrator 25.3.1, SVG Export Plug-In . SVG Version: 6.00 Build 0)  -->
<svg version="1.1" id="Layer_1" xmlns="http://www.w3.org/2000/svg" xmlns:xlink="http://www.w3.org/1999/xlink" x="0px" y="0px"
	 viewBox="0 0 128 128" style="enable-background:new 0 0 128 128;" xml:space="preserve">
<style type="text/css">
	.st0{opacity:0.24;}
</style>
<g id="Layer_2_1_" class="st0">
	<g id="Layer_1-2">
		<path d="M118,4c3.3,0,6,2.7,6,6v108c0,3.3-2.7,6-6,6H10c-3.3,0-6-2.7-6-6V10c0-3.3,2.7-6,6-6H118 M118,0H10C4.5,0,0,4.5,0,10v108
			c0,5.5,4.5,10,10,10h108c5.5,0,10-4.5,10-10V10C128,4.5,123.5,0,118,0z"/>
		<path d="M42,41.3h5.8l7.6,11.2V41.3h5.9v20.3h-5.9l-7.6-11.1v11.1H42V41.3z"/>
		<path d="M64.8,51.4c0-3.3,0.9-5.9,2.8-7.7s4.4-2.8,7.7-2.8s6,0.9,7.8,2.7s2.7,4.3,2.7,7.6c0.1,2-0.3,4-1.2,5.8
			c-0.8,1.5-2,2.7-3.5,3.5c-1.7,0.9-3.7,1.3-5.6,1.3c-1.9,0.1-3.9-0.3-5.7-1.1c-1.5-0.8-2.8-2-3.7-3.5
			C65.2,55.5,64.7,53.5,64.8,51.4z M71,51.4c-0.1,1.6,0.3,3.1,1.1,4.4c1.7,1.7,4.4,1.8,6.1,0.1c0,0,0.1-0.1,0.1-0.1
			c0.7-0.9,1.1-2.5,1.1-4.7c0.1-1.5-0.3-2.9-1.2-4.1c-0.8-0.9-1.9-1.4-3.1-1.3c-1.2,0-2.3,0.5-3,1.3C71.4,47.9,71,49.4,71,51.4
			L71,51.4z"/>
		<path d="M14.1,66.4h6.3v20.3h-6.3V66.4z"/>
		<path d="M24.9,66.4h8.2l3.2,12.3l3.2-12.3h8.2v20.3h-5.1V71.2l-4,15.5h-4.6L30,71.2v15.5h-5.1V66.4z"/>
		<path d="M64.1,83.4H57l-1,3.3h-6.4l7.6-20.3h6.8l7.6,20.3h-6.6L64.1,83.4z M62.8,79l-2.2-7.3L58.4,79H62.8z"/>
		<path d="M83.4,79.4v-4.2h9.7v8.7c-1.5,1.1-3.2,1.9-4.9,2.6c-1.6,0.5-3.4,0.7-5.1,0.7c-2,0.1-4.1-0.3-5.9-1.2
			c-1.5-0.8-2.8-2.1-3.5-3.7c-0.9-1.7-1.3-3.7-1.2-5.6c0-2,0.4-4,1.4-5.8c0.9-1.6,2.3-2.9,4-3.7c1.8-0.7,3.6-1.1,5.6-1
			c1.7-0.1,3.4,0.1,5,0.6c1.1,0.4,2,1,2.8,1.9c0.8,0.9,1.4,2.1,1.7,3.2l-6,1.1c-0.2-0.7-0.7-1.3-1.3-1.8c-0.7-0.4-1.5-0.6-2.3-0.6
			c-1.3,0-2.5,0.5-3.3,1.5c-0.9,1.3-1.4,2.9-1.2,4.5c0,2.2,0.4,3.8,1.2,4.7c0.9,1,2.1,1.5,3.4,1.4c0.7,0,1.4-0.1,2-0.3
			c0.8-0.3,1.5-0.6,2.2-1v-2H83.4z"/>
		<path d="M96.8,66.4h16.8v4.3H103V74h9.8v4.1H103v4h10.8v4.6h-17V66.4z"/>
	</g>
</g>
</svg>
